<?xml version="1.0" encoding="utf-8"?>
<!-- Generator: Adobe Illustrator 19.0.0, SVG Export Plug-In . SVG Version: 6.00 Build 0)  -->
<svg version="1.1" id="Layer_1" xmlns="http://www.w3.org/2000/svg" xmlns:xlink="http://www.w3.org/1999/xlink" x="0px" y="0px"
	 viewBox="122 153 480 293.5" style="enable-background:new 122 153 480 293.5;" xml:space="preserve">
<style type="text/css">
	.st0{fill:#383C40;stroke:#000000;stroke-miterlimit:10;}
	.st1{fill:#FDFEFF;stroke:#000000;stroke-miterlimit:10;}
</style>
<path id="XMLID_5_" class="st0" d="M380.3,213.5H190.2c-37.4,0-67.7,30-67.7,67.3v52c0,28.9,18.1,53.5,43.6,63.2l-14.8,48.7
	l43.9-44.2h185c37.4,0,67.2-30.3,67.2-67.7v-52C447.5,243.5,417.6,213.5,380.3,213.5z"/>
<path id="XMLID_1_" class="st1" d="M348.2,153.5H535c36.7,0,66.5,30,66.5,67.3v52c0,28.9-17.8,53.5-42.8,63.2l14.5,48.7L530,340.5
	H348.2c-36.7,0-65.7-30.3-65.7-67.7v-52C282.5,183.5,311.4,153.5,348.2,153.5z"/>
</svg>
